<?xml version="1.0" encoding="utf-8"?>
<!-- Generator: Adobe Illustrator 16.0.0, SVG Export Plug-In . SVG Version: 6.00 Build 0)  -->
<!DOCTYPE svg PUBLIC "-//W3C//DTD SVG 1.0//EN" "http://www.w3.org/TR/2001/REC-SVG-20010904/DTD/svg10.dtd">
<svg version="1.0" id="Layer_1" xmlns="http://www.w3.org/2000/svg" xmlns:xlink="http://www.w3.org/1999/xlink" x="0px" y="0px"
	 width="100px" height="100px" viewBox="0 0 100 100" enable-background="new 0 0 100 100" xml:space="preserve">
<path fill="#7CB342" d="M70,10c-27.604,0-50,22.382-50,50.001C20,76.569,33.431,90,50,90s30-13.431,30-29.999
	c0-10.412-3.176-19.839-9.999-26.668C63.555,26.888,63.558,16.445,70,10z"/>
<path fill="#F1F7E9" d="M65.285,38.046c-4.378-4.375-6.787-10.195-6.787-16.38c0-1.191,0.093-2.369,0.268-3.521
	c-18.466,4.96-32.099,21.849-32.099,41.856c0,12.043,9.177,21.986,20.906,23.205c-2.025-6.782-2.962-13.68-2.897-20.484
	L33.333,51.381l4.714-4.715l7.273,7.272c0.817-5.952,2.394-11.758,4.68-17.271l6.16,2.552c-3.084,7.439-4.678,15.241-4.813,23.054
	l8.939-8.938L65,58.048L51.838,71.21c0.503,3.94,1.381,7.852,2.636,11.688c10.73-2.093,18.858-11.563,18.858-22.896
	C73.332,53.658,71.936,44.707,65.285,38.046z"/>
<path fill="#DBEBC7" d="M26.667,60.001c0,12.043,9.178,21.986,20.906,23.205c-0.085-0.285-0.164-0.571-0.245-0.857
	c-9.623-2.878-16.661-11.804-16.661-22.348c0-18.474,11.626-34.279,27.943-40.501c0.043-0.454,0.088-0.908,0.155-1.355
	C40.299,23.105,26.667,39.993,26.667,60.001z"/>
<path fill="#DBEBC7" d="M55.581,58.038c0.534-5.868,1.951-11.687,4.273-17.288l-3.695-1.532c-3.084,7.438-4.673,15.234-4.805,23.046
	L55.581,58.038z"/>
<path fill="#DBEBC7" d="M67.829,60.876L65,58.048L51.838,71.21c0.501,3.938,1.383,7.844,2.641,11.677
	c0.001,0.003,0.003,0.007,0.003,0.01c1.324-0.259,2.61-0.632,3.847-1.105c-1-3.019-1.739-6.088-2.234-9.181L67.829,60.876z"/>
</svg>
