<?xml version="1.0" encoding="iso-8859-1"?>
<!-- Generator: Adobe Illustrator 19.0.0, SVG Export Plug-In . SVG Version: 6.00 Build 0)  -->
<svg version="1.1" id="Capa_1" xmlns="http://www.w3.org/2000/svg" xmlns:xlink="http://www.w3.org/1999/xlink" x="0px" y="0px"
	 viewBox="0 0 512 512" style="enable-background:new 0 0 512 512;" xml:space="preserve">
<g>
	<path style="fill:#DAE0EA;" d="M151.79,464.419v32.064c0,4.427,3.589,8.016,8.016,8.016h16.032c4.427,0,8.016-3.589,8.016-8.016
		v-32.064H151.79z"/>
	<path style="fill:#DAE0EA;" d="M328.145,464.419v32.064c0,4.427,3.589,8.016,8.016,8.016h16.032c4.427,0,8.016-3.589,8.016-8.016
		v-32.064H328.145z"/>
</g>
<path style="fill:#FFC850;" d="M344.177,472.435H167.823c-17.709,0-32.064-14.356-32.064-32.064V207.903
	c0-17.709,14.356-32.064,32.064-32.064h176.355c17.709,0,32.065,14.356,32.065,32.064v232.468
	C376.242,458.08,361.886,472.435,344.177,472.435z"/>
<path style="fill:#FEA82F;" d="M167.823,175.839c-17.71,0-32.064,14.356-32.064,32.064v232.468
	c0,17.708,14.355,32.064,32.064,32.064h176.355c17.71,0,32.065-14.356,32.065-32.064h-208.42V175.839z"/>
<rect x="167.82" y="207.9" style="fill:#FFFFFF;" width="176.35" height="232.47"/>
<path style="fill:#FFC850;" d="M296.081,384.258H215.92c-8.854,0-16.032-7.178-16.032-16.032v-32.065h112.226v32.065
	C312.113,377.08,304.935,384.258,296.081,384.258z"/>
<rect x="135.76" y="272.03" style="fill:#ABFFDB;" width="240.48" height="32.06"/>
<rect x="135.76" y="272.03" style="fill:#92E0C0;" width="32.06" height="32.06"/>
<path style="fill:#DAE0EA;" d="M304.097,39.564h-96.194c-4.427,0-8.016-3.589-8.016-8.016V15.516c0-4.427,3.589-8.016,8.016-8.016
	h96.194c4.427,0,8.016,3.589,8.016,8.016v16.032C312.113,35.976,308.524,39.564,304.097,39.564z"/>
<path style="fill:#474D54;" d="M344.177,168.339H303.58V47.065h0.516c8.556,0,15.516-6.961,15.516-15.516V15.516
	C319.613,6.96,312.652,0,304.097,0h-96.193c-8.556,0-15.516,6.96-15.516,15.516v16.032c0,8.556,6.96,15.516,15.516,15.516h0.516
	v121.274h-40.597c-21.816,0-39.564,17.749-39.564,39.564V440.37c0,13.014,6.318,24.578,16.046,31.793
	c-0.003,0.091-0.014,0.18-0.014,0.272v24.048c0,8.556,6.96,15.517,15.516,15.517h16.032c8.556,0,15.516-6.961,15.516-15.517v-16.548
	h129.29v16.548c0,8.556,6.96,15.517,15.516,15.517h16.032c8.556,0,15.516-6.961,15.516-15.517v-24.048
	c0-0.092-0.01-0.181-0.014-0.272c9.728-7.215,16.046-18.779,16.046-31.793V207.903C383.742,186.087,365.993,168.339,344.177,168.339
	z M207.903,32.065c-0.285,0-0.516-0.232-0.516-0.516V15.516c0-0.285,0.231-0.516,0.516-0.516h96.193
	c0.285,0,0.516,0.231,0.516,0.516v16.032c0,0.285-0.231,0.516-0.516,0.516L207.903,32.065L207.903,32.065z M288.581,47.065v121.274
	H223.42V47.065H288.581z M176.355,496.483c0,0.285-0.231,0.517-0.516,0.517h-16.032c-0.285,0-0.516-0.231-0.516-0.517v-17.485
	c2.75,0.607,5.603,0.937,8.532,0.937h8.532L176.355,496.483L176.355,496.483z M352.709,496.483c0,0.285-0.231,0.517-0.516,0.517
	h-16.032c-0.285,0-0.516-0.231-0.516-0.517v-16.548h8.532c2.93,0,5.782-0.33,8.532-0.937L352.709,496.483L352.709,496.483z
	 M368.742,264.532v15v160.839c0,13.545-11.02,24.564-24.564,24.564H167.823c-13.545,0-24.564-11.02-24.564-24.564V296.597v-32.065
	v-56.629c0-13.545,11.02-24.564,24.564-24.564h176.354c13.545,0,24.564,11.02,24.564,24.564v56.629H368.742z"/>
<path style="fill:#FF8031;" d="M312.113,328.661H199.887c-4.142,0-7.5,3.358-7.5,7.5s3.358,7.5,7.5,7.5h8.532v8.532
	c0,4.142,3.358,7.5,7.5,7.5s7.5-3.358,7.5-7.5v-8.532h88.693c4.142,0,7.5-3.358,7.5-7.5S316.255,328.661,312.113,328.661z"/>
<g>
</g>
<g>
</g>
<g>
</g>
<g>
</g>
<g>
</g>
<g>
</g>
<g>
</g>
<g>
</g>
<g>
</g>
<g>
</g>
<g>
</g>
<g>
</g>
<g>
</g>
<g>
</g>
<g>
</g>
</svg>
