<?xml version="1.0" encoding="UTF-8" standalone="no"?> <svg xmlns="http://www.w3.org/2000/svg" viewBox="0 0 64 64"><defs><style>.cls-1{fill:#61c5a8;}.cls-1,.cls-2,.cls-3,.cls-4,.cls-5,.cls-7,.cls-8{stroke:#54596e;stroke-linecap:round;stroke-linejoin:round;stroke-width:2px;}.cls-2{fill:#ffd578;}.cls-3{fill:none;}.cls-4{fill:#dfdfdf;}.cls-5{fill:#8065c4;}.cls-6,.cls-8{fill:#fff35f;}.cls-7{fill:#9af43b;}</style></defs><title>checkmark</title><g id="checkmark"><path class="cls-1" d="M43.26,50H33V40H23V50H13.74C8.91,50,5,53.35,5,57.49V63H51V56.63C51,53,47.54,50,43.26,50Z"/><path class="cls-2" d="M33.29,52,28,56l-5.29-4A3.71,3.71,0,0,1,19,48.29V42H37v6.29A3.71,3.71,0,0,1,33.29,52Z"/><line class="cls-3" x1="15" y1="57" x2="15" y2="62"/><line class="cls-3" x1="41" y1="57" x2="41" y2="62"/><path class="cls-2" d="M30.48,9h-5A11.67,11.67,0,0,0,14.13,20.92v11.4A13.9,13.9,0,0,0,21.93,45h0a3,3,0,0,0,2.91,3h6.31a3,3,0,0,0,2.91-3h0a13.9,13.9,0,0,0,7.8-12.63V20.92A11.67,11.67,0,0,0,30.48,9Z"/><rect class="cls-4" x="11" y="16" width="34" height="21" rx="3.87" ry="3.87"/><rect class="cls-5" x="11" y="21" width="34" height="11"/><circle class="cls-6" cx="20" cy="27" r="2"/><circle class="cls-6" cx="36" cy="27" r="2"/><circle class="cls-7" cx="48.5" cy="13.5" r="10.5"/><path class="cls-8" d="M47.63,20a1.5,1.5,0,0,1-.9-.3l-4.5-3.37a1.5,1.5,0,1,1,1.8-2.4l3.15,2.36,4.4-7.54a1.5,1.5,0,1,1,2.59,1.51l-5.25,9a1.5,1.5,0,0,1-1,.71Z"/></g></svg>